<svg width="29" height="27" viewBox="0 0 29 27" fill="none" xmlns="http://www.w3.org/2000/svg">
<path d="M14.4949 27C14.1391 27 13.8545 26.7326 13.8545 26.4057C13.8545 23.3848 13.326 19.2843 10.8051 16.9369C8.28425 14.5796 3.88292 14.0943 0.640368 14.0943C0.284602 14.0943 0.0101647 13.8368 0 13.5099C0 13.1731 0.284602 12.9057 0.640368 12.9057C3.88292 12.9057 8.27409 12.4105 10.8051 10.0631C13.326 7.7157 13.8545 3.61519 13.8647 0.594277C13.8647 0.25752 14.1595 0 14.5051 0C14.8507 0 15.1455 0.267425 15.1455 0.594277V0.614087C15.1455 3.635 15.6842 7.7157 18.1949 10.0532C20.7259 12.4006 25.1171 12.8958 28.3596 12.8958C28.7154 12.8958 29 13.1632 29 13.4901C29 13.8269 28.7154 14.0844 28.3596 14.0844C25.1171 14.0844 19.9839 15.263 17.463 17.6104C14.9422 19.9578 15.1455 23.3749 15.1455 26.3958C15.1455 26.7227 14.8608 26.9901 14.5051 26.9901L14.4949 27Z" fill="#E30613"/>
</svg>
