<svg width="361" height="110" viewBox="0 0 361 110" fill="none" xmlns="http://www.w3.org/2000/svg">
<g clip-path="url(#clip0_2101_22)">
<path d="M38.6036 90.8114C38.6036 90.5658 38.6718 90.3884 38.8218 90.2792C38.9717 90.17 39.1627 90.1017 39.4217 90.1017C39.5854 90.1017 39.7354 90.1154 39.8717 90.1563C40.0081 90.1973 40.0899 90.2246 40.1444 90.2382V94.1005C40.3626 93.8139 40.6763 93.5683 41.0717 93.3635C41.4671 93.1588 41.9171 93.0633 42.4353 93.0633C42.9535 93.0633 43.3898 93.1452 43.7989 93.3226C44.2216 93.5 44.5762 93.7457 44.8898 94.0596C45.2034 94.3735 45.4352 94.7556 45.6125 95.1923C45.7898 95.629 45.8716 96.1067 45.8716 96.6253C45.8716 97.1439 45.7761 97.6079 45.5989 98.0447C45.4216 98.4814 45.1625 98.8635 44.8489 99.1774C44.5216 99.4913 44.1398 99.737 43.7034 99.9144C43.2535 100.092 42.7762 100.187 42.2444 100.187C41.7126 100.187 41.2217 100.105 40.7853 99.9417C40.3354 99.7779 39.9535 99.5323 39.6399 99.2184C39.3127 98.8908 39.0672 98.495 38.8899 98.0037C38.7127 97.5124 38.6172 96.9529 38.6172 96.2978V90.7978L38.6036 90.8114ZM42.2171 98.8089C42.5171 98.8089 42.8035 98.7544 43.0626 98.6452C43.3216 98.536 43.5398 98.3859 43.7171 98.1948C43.8944 98.0037 44.0443 97.7717 44.1398 97.5124C44.2353 97.2531 44.2898 96.9529 44.2898 96.639C44.2898 96.3251 44.2353 96.0385 44.1398 95.7655C44.0443 95.4926 43.8944 95.2606 43.7171 95.0695C43.5262 94.8784 43.308 94.7283 43.0626 94.6191C42.8171 94.5099 42.5308 94.4553 42.2171 94.4553C41.9035 94.4553 41.6171 94.5099 41.3581 94.6191C41.099 94.7283 40.8808 94.8921 40.7035 95.0831C40.5263 95.2742 40.3763 95.5199 40.2808 95.7792C40.1717 96.0521 40.1308 96.3387 40.1308 96.639C40.1308 96.9665 40.1854 97.2531 40.2808 97.5261C40.3899 97.799 40.5263 98.031 40.7172 98.2084C40.9081 98.3859 41.1262 98.5496 41.3717 98.6588C41.6308 98.768 41.9035 98.8226 42.2171 98.8226V98.8089Z" fill="#FFE5B6"/>
<path d="M47.167 93.964C47.167 93.7183 47.2352 93.5409 47.3852 93.4317C47.5352 93.3226 47.7261 93.2543 47.9715 93.2543C48.1352 93.2543 48.2852 93.268 48.4215 93.3089C48.5579 93.3499 48.6533 93.3772 48.6942 93.3908V96.9801C48.6942 97.5124 48.8306 97.9355 49.117 98.2494C49.4033 98.5633 49.8397 98.727 50.426 98.727C50.9714 98.727 51.4078 98.5633 51.7214 98.2494C52.0351 97.9355 52.1851 97.4578 52.1851 96.8437V93.964C52.1851 93.7183 52.2532 93.5409 52.4032 93.4317C52.5396 93.3226 52.7441 93.2543 52.9896 93.2543C53.1532 93.2543 53.3032 93.268 53.4396 93.3089C53.5759 93.3499 53.6714 93.3772 53.7123 93.3908V99.2866C53.7123 99.928 53.6305 100.46 53.4532 100.911C53.2896 101.361 53.0441 101.716 52.7305 102.002C52.4169 102.289 52.0351 102.494 51.5987 102.63C51.1624 102.767 50.6715 102.821 50.126 102.821C49.7578 102.821 49.4169 102.808 49.117 102.767C48.817 102.726 48.5442 102.685 48.2988 102.63C48.0533 102.576 47.8624 102.521 47.7124 102.48C47.5624 102.426 47.4534 102.398 47.3852 102.371C47.4534 102.18 47.5215 101.989 47.5897 101.798C47.6579 101.607 47.7124 101.416 47.7806 101.225C47.8488 101.252 47.9443 101.293 48.0806 101.334C48.217 101.375 48.3806 101.416 48.5715 101.457C48.7624 101.498 48.967 101.525 49.2124 101.552C49.4442 101.579 49.7033 101.593 49.976 101.593C50.3306 101.593 50.6442 101.552 50.9169 101.484C51.1896 101.402 51.4351 101.279 51.626 101.088C51.8169 100.897 51.9669 100.651 52.076 100.337C52.1851 100.024 52.226 99.6414 52.226 99.1774C52.0487 99.4367 51.7623 99.6414 51.3805 99.8052C50.9987 99.969 50.576 100.037 50.126 100.037C49.6897 100.037 49.2942 99.9826 48.926 99.8598C48.5579 99.737 48.2442 99.5595 47.9852 99.3412C47.7261 99.1092 47.5215 98.8226 47.3715 98.4814C47.2215 98.1402 47.1534 97.7444 47.1534 97.3077V93.964H47.167Z" fill="#FFE5B6"/>
<path d="M269.448 48.1898H272.611L278.898 30.4342H271.357C272.08 28.5918 272.857 26.6675 273.661 24.6613L276.552 17.5099H255.566L250.739 30.4342H246.539L244.044 37.7493C243.608 37.026 243.117 36.33 242.585 35.6749C239.339 31.7034 234.608 29.5062 229.262 29.5062C221.285 29.5062 214.058 33.6278 209.231 40.2742C208.672 38.1042 207.772 36.1935 206.572 34.6104C204.118 31.3759 200.504 29.6017 196.372 29.6017C194.641 29.6017 192.922 29.8883 191.245 30.4342H173.518L172.305 33.9417C171.596 35.9888 170.9 38.0359 170.191 40.0967C168.664 33.7779 163.264 29.5062 156.228 29.5062C155.451 29.5062 154.66 29.5744 153.869 29.6972C155.723 24.8114 157.523 20.0757 159.119 15.9541L161.86 8.87094H140.424L137.137 18.4652C134.751 25.4392 132.297 32.5905 129.856 39.7146C129.351 38.4044 128.697 37.1898 127.906 36.057C124.892 31.8399 120.133 29.5062 114.502 29.5062C107.711 29.5062 101.357 32.9044 96.7612 38.3362C96.8021 38.227 99.6521 30.4342 99.6521 30.4342H78.9799L78.8571 30.8163C76.9208 29.9702 74.7936 29.5062 72.7073 29.5062C67.5938 29.5062 62.5621 31.7307 58.3758 35.7159C61.1848 27.5546 64.1166 18.9838 67.1301 10.0583L69.4619 3.17987H47.4397L46.2943 6.81014C41.2353 22.8188 35.74 39.8101 29.7538 55.5732C25.7312 66.4094 22.8949 66.9689 22.3631 66.9689C22.1722 66.9689 22.104 66.9417 22.104 66.9417C21.3404 66.464 20.1131 62.2605 21.6813 55.1774L23.2631 48.026L2.09996 50.5099L1.24089 54.0173C-1.2545 64.1302 0.0272831 73.1104 4.86807 79.2928C8.7407 84.2469 14.5224 86.9627 21.1631 86.9627C29.6856 86.9627 41.2626 82.8548 48.6397 63.6253C49.8942 72.7146 55.785 78.5967 64.0893 78.5967C67.6619 78.5967 70.9482 77.5595 73.7709 75.6079C75.8572 77.4094 78.6662 78.5967 82.198 78.5967C86.5206 78.5967 90.8296 76.6724 95.084 72.8647C98.7112 76.5359 103.879 78.5967 109.879 78.5967C112.756 78.5967 115.443 78.3101 117.952 77.7233L137.56 77.5322C137.56 77.5322 138.706 73.629 138.747 73.5198C141.542 76.7952 145.578 78.5967 150.201 78.5967C152.71 78.5967 155.069 78.3784 157.292 77.9417C155.437 83.3734 153.514 88.9417 151.605 94.4689L149.205 101.388H170.409L172.305 95.124C174.309 88.4776 176.123 82.4727 177.8 77.3275C180.705 78.2283 183.991 78.7059 187.55 78.7059C194.327 78.7059 201.39 77.9417 207.99 73.2605C211.195 76.6861 215.722 78.6104 220.999 78.6104C229.699 78.6104 237.444 73.7928 242.189 65.8635C242.517 68.7295 243.403 71.5273 245.298 73.8337C247.889 77 251.748 78.6104 256.766 78.6104C267.457 78.6104 276.116 68.5794 279.198 63.2841L281.229 59.7903L269.448 48.2034V48.1898Z" fill="#FFE5B6"/>
<path d="M59.0576 97.8399C59.1258 97.8945 59.2622 97.9628 59.4394 98.0447C59.6303 98.1265 59.8485 98.2084 60.1212 98.304C60.394 98.3858 60.7076 98.4677 61.0621 98.5223C61.4167 98.5906 61.7985 98.6179 62.2075 98.6179C62.7393 98.6179 63.1893 98.5496 63.5166 98.4131C63.8575 98.2767 64.0211 98.031 64.0211 97.6898C64.0211 97.4032 63.912 97.1849 63.6939 97.0347C63.4757 96.8846 63.0939 96.7754 62.5348 96.7208L61.3212 96.5844C60.9121 96.5434 60.5303 96.4615 60.1894 96.366C59.8485 96.2568 59.5485 96.1067 59.3031 95.9293C59.0576 95.7382 58.8667 95.5198 58.7167 95.2332C58.5804 94.9603 58.5122 94.6327 58.5122 94.2506C58.5122 93.9231 58.5804 93.6092 58.7031 93.3089C58.8258 93.0087 59.0303 92.7494 59.3167 92.531C59.5894 92.299 59.9576 92.1216 60.4076 91.9988C60.8576 91.8759 61.403 91.8077 62.0439 91.8077C63.1212 91.8077 63.953 91.9305 64.5393 92.1625C65.1257 92.3945 65.4256 92.7084 65.4256 93.0906C65.4256 93.2134 65.3984 93.3226 65.3575 93.4181C65.3166 93.5136 65.262 93.5955 65.2075 93.6638C65.1529 93.732 65.0847 93.8002 65.0302 93.8412C64.962 93.8821 64.9211 93.9094 64.8938 93.9231C64.8529 93.8821 64.7575 93.8139 64.6211 93.732C64.4848 93.6501 64.2939 93.5546 64.062 93.4727C63.8302 93.3908 63.5439 93.3089 63.2166 93.2407C62.8893 93.1724 62.5075 93.1452 62.0712 93.1452C60.8712 93.1452 60.2712 93.4591 60.2712 94.0868C60.2712 94.3598 60.3803 94.5645 60.6121 94.701C60.8439 94.8375 61.1576 94.933 61.5939 94.9876L63.1757 95.1923C64.0348 95.3015 64.7029 95.5471 65.1666 95.902C65.6438 96.2568 65.8756 96.7891 65.8756 97.4715C65.8756 98.2494 65.562 98.8635 64.9484 99.3275C64.3348 99.7916 63.4484 100.024 62.2894 100.024C61.7303 100.024 61.2257 99.9826 60.7758 99.9007C60.3258 99.8188 59.9303 99.7233 59.5894 99.6141C59.2485 99.505 58.9894 99.3958 58.7713 99.3002C58.5667 99.1911 58.4304 99.1228 58.3622 99.0682L59.0303 97.8809L59.0576 97.8399Z" fill="#FFE5B6"/>
<path d="M69.121 99.7643C68.6164 98.5769 68.1937 97.567 67.8801 96.7481C67.5528 95.9156 67.2938 95.2332 67.1028 94.701C66.9119 94.1551 66.7756 93.7457 66.6938 93.4454C66.612 93.1452 66.571 92.9404 66.571 92.8176C66.571 92.5993 66.6392 92.4082 66.7892 92.2444C66.9392 92.0806 67.1574 91.9988 67.4574 91.9988C67.6892 91.9988 67.8665 92.026 67.9892 92.067C68.1119 92.1079 68.2074 92.1352 68.2483 92.1625C68.371 92.6129 68.5074 93.1042 68.671 93.6092C68.821 94.1141 68.9846 94.6327 69.1483 95.1377C69.3119 95.6427 69.4755 96.1203 69.6391 96.5844C69.8028 97.0484 69.9391 97.4578 70.0619 97.8126C70.171 97.4988 70.2937 97.1303 70.43 96.7072C70.5528 96.2978 70.6891 95.8747 70.8391 95.4243C70.9755 94.9876 71.1118 94.5372 71.2482 94.0868C71.3846 93.6365 71.5073 93.2134 71.6164 92.804C71.6982 92.531 71.8209 92.3263 71.9709 92.1898C72.1209 92.0533 72.3664 91.9851 72.6936 91.9851C72.8982 91.9851 73.0891 92.0124 73.2527 92.067C73.4163 92.1216 73.5254 92.1625 73.5663 92.1898C73.7027 92.6538 73.839 93.1452 74.0027 93.6501C74.1663 94.1551 74.3163 94.66 74.4663 95.165C74.6163 95.67 74.7799 96.134 74.9163 96.5844C75.0663 97.0347 75.2026 97.4442 75.3254 97.799C75.5981 97.0893 75.8708 96.3114 76.1572 95.4653C76.4435 94.6191 76.7026 93.7729 76.9344 92.9268C77.0299 92.6129 77.1526 92.3672 77.3026 92.2171C77.4526 92.067 77.6844 91.9988 77.9844 91.9988C78.2571 91.9988 78.4889 92.0397 78.6662 92.1352C78.8435 92.2308 78.9389 92.2853 78.9662 92.299C78.8844 92.6402 78.7344 93.1042 78.5298 93.7047C78.3253 94.3052 78.0935 94.9466 77.8344 95.6427C77.5753 96.3387 77.3026 97.0484 77.0162 97.7854C76.7299 98.5087 76.4572 99.1774 76.1981 99.7643H74.3709C74.289 99.5459 74.1799 99.232 74.0436 98.8089C73.9072 98.3859 73.7572 97.9355 73.5936 97.4442C73.43 96.9528 73.2663 96.4342 73.1027 95.9156C72.9391 95.397 72.7891 94.9194 72.6663 94.4826C72.53 94.9194 72.38 95.397 72.23 95.9156C72.0664 96.4342 71.9164 96.9392 71.7527 97.4442C71.5891 97.9355 71.4391 98.3995 71.3164 98.8089C71.18 99.232 71.0709 99.5459 70.9891 99.7643H69.1619H69.121Z" fill="#FFE5B6"/>
<path d="M86.9706 99.737C86.8615 99.7643 86.7115 99.7779 86.4797 99.8052C86.2615 99.8325 86.0024 99.8598 85.7024 99.8871C85.4024 99.9144 85.0615 99.9417 84.6933 99.9553C84.3252 99.9826 83.9297 99.9826 83.5343 99.9826C82.7298 99.9826 82.0752 99.9144 81.5571 99.7779C81.0525 99.6414 80.6434 99.4504 80.3434 99.2184C80.0435 98.9864 79.8526 98.7134 79.7435 98.4132C79.6344 98.1129 79.5798 97.799 79.5798 97.4715C79.5798 97.0484 79.648 96.6799 79.7707 96.3524C79.8935 96.0385 80.1116 95.7655 80.4116 95.5472C80.7116 95.3288 81.0934 95.165 81.5707 95.0558C82.048 94.9467 82.6207 94.8921 83.3025 94.8921C83.6979 94.8921 84.0661 94.8921 84.4206 94.933C84.7752 94.9603 85.0342 94.9876 85.2115 95.0012C85.2115 94.6464 85.157 94.3462 85.0342 94.1005C84.9115 93.8685 84.7479 93.6774 84.5433 93.541C84.3388 93.4045 84.0934 93.3089 83.807 93.268C83.5206 93.2134 83.1934 93.1861 82.8525 93.1861C82.2661 93.1861 81.7889 93.2543 81.4343 93.3908C81.0798 93.5273 80.848 93.6365 80.7253 93.732C80.6571 93.6774 80.5753 93.5819 80.4662 93.4318C80.3571 93.2816 80.3025 93.1179 80.3025 92.8995C80.3025 92.7494 80.3434 92.6129 80.4253 92.4764C80.5071 92.34 80.6434 92.2171 80.8343 92.1079C81.0252 91.9988 81.298 91.9169 81.6252 91.8486C81.9525 91.7804 82.3752 91.7531 82.8797 91.7531C83.4934 91.7531 84.0388 91.8077 84.5433 91.9305C85.0479 92.0534 85.4706 92.2444 85.8388 92.4901C86.1933 92.7494 86.4797 93.0906 86.6842 93.5136C86.8887 93.9367 86.9842 94.4417 86.9842 95.0422V99.7097L86.9706 99.737ZM85.2251 96.2978C85.1161 96.2705 84.9252 96.2432 84.6388 96.2022C84.3524 96.1613 83.9297 96.134 83.357 96.134C82.6616 96.134 82.1434 96.2432 81.8298 96.4479C81.5161 96.6663 81.3525 96.9938 81.3525 97.4442C81.3525 97.6352 81.3798 97.799 81.448 97.9491C81.5161 98.0993 81.6252 98.2357 81.8025 98.3449C81.9661 98.4541 82.1979 98.536 82.4707 98.5906C82.757 98.6452 83.1116 98.6725 83.5343 98.6725C84.0115 98.6725 84.3797 98.6588 84.6661 98.6179C84.9388 98.5769 85.1297 98.5496 85.2251 98.536V96.2705V96.2978Z" fill="#FFE5B6"/>
<path d="M88.5932 96.2432C88.5932 95.5198 88.7023 94.8784 88.9069 94.3325C89.1114 93.7866 89.3977 93.3089 89.7796 92.9404C90.1477 92.5583 90.5977 92.2717 91.1295 92.0806C91.6613 91.8896 92.234 91.7804 92.8749 91.7804C93.4613 91.7804 94.0067 91.8896 94.4976 92.0943C94.9885 92.299 95.4249 92.5856 95.793 92.9404C96.1612 93.2953 96.4476 93.732 96.6521 94.237C96.8567 94.7419 96.9657 95.2878 96.9657 95.8747C96.9657 96.4615 96.8703 97.0211 96.6658 97.5261C96.4612 98.031 96.1885 98.4541 95.834 98.8226C95.4794 99.1774 95.0567 99.464 94.5794 99.6687C94.1022 99.8734 93.5704 99.969 93.0113 99.969C92.4522 99.969 91.9068 99.8598 91.4432 99.6278C90.9932 99.3958 90.6386 99.1228 90.3795 98.7953V102.862H88.6205V96.2295L88.5932 96.2432ZM92.7386 98.4132C93.0931 98.4132 93.4067 98.3449 93.7067 98.2221C94.0067 98.0993 94.2522 97.9082 94.4704 97.6898C94.6885 97.4578 94.8385 97.1985 94.9613 96.8846C95.0703 96.5707 95.1249 96.2432 95.1249 95.8747C95.1249 95.5062 95.0703 95.1923 94.9613 94.8921C94.8522 94.5918 94.6885 94.3189 94.4704 94.1005C94.2522 93.8821 94.0067 93.7047 93.7067 93.5682C93.4067 93.4454 93.0931 93.3772 92.7386 93.3772C92.384 93.3772 92.0704 93.4454 91.7704 93.5682C91.4704 93.6911 91.225 93.8685 91.0068 94.0732C90.7886 94.2779 90.625 94.5509 90.5159 94.8511C90.3932 95.1514 90.3386 95.4926 90.3386 95.861C90.3386 96.2295 90.3932 96.5571 90.5159 96.871C90.6386 97.1849 90.8023 97.4442 91.0068 97.6762C91.2113 97.9082 91.4568 98.0856 91.7568 98.2084C92.0568 98.3313 92.384 98.3995 92.7386 98.3995V98.4132Z" fill="#FFE5B6"/>
<path d="M121.77 101.088C121.77 101.088 121.906 101.143 122.042 101.211C122.179 101.265 122.356 101.32 122.574 101.375C122.779 101.429 123.038 101.484 123.311 101.525C123.583 101.566 123.897 101.593 124.238 101.593C124.592 101.593 124.933 101.552 125.274 101.47C125.615 101.388 125.915 101.252 126.188 101.047C126.46 100.842 126.679 100.569 126.842 100.201C127.006 99.8461 127.101 99.3685 127.101 98.8089V98.6178C126.87 98.8908 126.515 99.1637 126.079 99.4094C125.629 99.6551 125.097 99.7779 124.456 99.7779C123.883 99.7779 123.351 99.6824 122.861 99.4913C122.37 99.3002 121.961 99.0273 121.606 98.6861C121.252 98.3449 120.979 97.9218 120.788 97.4441C120.597 96.9528 120.488 96.4206 120.488 95.8337C120.488 95.2469 120.597 94.701 120.802 94.2097C121.006 93.7183 121.306 93.2816 121.674 92.9268C122.042 92.5719 122.492 92.2853 123.011 92.0806C123.529 91.8759 124.101 91.7667 124.715 91.7667C125.329 91.7667 125.847 91.8486 126.351 92.026C126.856 92.2035 127.292 92.4764 127.66 92.8312C128.029 93.1861 128.315 93.6501 128.533 94.2097C128.738 94.7692 128.847 95.4243 128.847 96.1749V98.3995C128.847 99.2183 128.738 99.9144 128.52 100.501C128.301 101.088 127.988 101.566 127.592 101.934C127.197 102.303 126.733 102.576 126.188 102.753C125.642 102.931 125.056 103.012 124.415 103.012C123.992 103.012 123.611 102.985 123.256 102.944C122.915 102.903 122.601 102.835 122.329 102.78C122.056 102.726 121.838 102.644 121.661 102.576C121.483 102.507 121.361 102.453 121.279 102.412L121.756 101.102L121.77 101.088ZM124.701 98.2903C125.056 98.2903 125.37 98.2221 125.656 98.0992C125.942 97.9764 126.188 97.799 126.392 97.5943C126.597 97.3759 126.76 97.1166 126.883 96.8164C127.006 96.5161 127.06 96.1886 127.06 95.8201C127.06 95.4516 127.006 95.1377 126.883 94.8374C126.76 94.5372 126.597 94.2643 126.392 94.0459C126.188 93.8275 125.942 93.6501 125.656 93.5273C125.37 93.4044 125.042 93.3362 124.701 93.3362C124.361 93.3362 124.006 93.4044 123.72 93.5273C123.42 93.6501 123.174 93.8412 122.97 94.0595C122.765 94.2915 122.601 94.5508 122.492 94.8511C122.383 95.1513 122.329 95.4652 122.329 95.8064C122.329 96.5434 122.547 97.1439 122.983 97.5943C123.42 98.0446 123.992 98.263 124.715 98.263L124.701 98.2903Z" fill="#FFE5B6"/>
<path d="M134.41 91.7531C135.01 91.7531 135.569 91.8623 136.088 92.067C136.606 92.2717 137.056 92.5583 137.437 92.9268C137.819 93.2953 138.119 93.732 138.337 94.2233C138.556 94.7146 138.665 95.2742 138.665 95.861C138.665 96.4479 138.556 96.9802 138.337 97.4851C138.119 97.9901 137.819 98.4132 137.437 98.7816C137.056 99.1501 136.606 99.4367 136.088 99.6551C135.569 99.8735 135.01 99.969 134.41 99.969C133.81 99.969 133.251 99.8598 132.733 99.6551C132.215 99.4504 131.765 99.1501 131.383 98.7816C131.001 98.4132 130.701 97.9764 130.483 97.4851C130.265 96.9802 130.156 96.4479 130.156 95.861C130.156 95.2742 130.265 94.7283 130.483 94.2233C130.701 93.7184 131.001 93.2953 131.383 92.9268C131.765 92.5583 132.215 92.2717 132.733 92.067C133.251 91.8623 133.81 91.7531 134.41 91.7531ZM134.41 98.3995C134.765 98.3995 135.092 98.3313 135.392 98.2084C135.692 98.0856 135.951 97.8945 136.156 97.6625C136.374 97.4305 136.537 97.1576 136.647 96.8573C136.769 96.5571 136.824 96.2159 136.824 95.861C136.824 95.5062 136.769 95.165 136.647 94.8511C136.524 94.5372 136.36 94.2643 136.156 94.0323C135.937 93.8003 135.692 93.6228 135.392 93.5C135.092 93.3772 134.765 93.3089 134.41 93.3089C134.056 93.3089 133.715 93.3772 133.428 93.5C133.128 93.6228 132.883 93.8139 132.665 94.0323C132.447 94.2643 132.283 94.5372 132.174 94.8511C132.051 95.165 131.997 95.5062 131.997 95.861C131.997 96.2159 132.051 96.5571 132.174 96.8573C132.297 97.1576 132.46 97.4305 132.665 97.6625C132.869 97.8945 133.128 98.072 133.428 98.2084C133.728 98.3313 134.056 98.3995 134.41 98.3995Z" fill="#FFE5B6"/>
<path d="M118.033 95.5471V100.078L113.711 104.391V95.5471C113.711 93.9504 112.429 92.6675 110.834 92.6675H109.034V96.1203L103.716 90.7841L103.443 90.5112L103.716 90.2382L109.034 84.902V88.3548H110.834C114.802 88.3548 118.033 91.5893 118.033 95.5608V95.5471Z" fill="#FFE5B6"/>
<path d="M99.1202 99.3548V94.8238L103.443 90.5112V99.3548C103.443 100.952 104.725 102.235 106.32 102.235H108.12V98.7816L113.438 104.118L113.711 104.391L113.438 104.664L108.12 110V106.547H106.32C102.352 106.547 99.1202 103.313 99.1202 99.3412V99.3548Z" fill="#FFE5B6"/>
<path d="M51.2578 8.39331C46.1443 24.5658 40.6626 41.4888 34.6219 57.402C31.281 66.4231 27.463 72.1824 22.3631 72.1824C15.8587 72.1824 14.5633 63.2568 16.6087 54.0447L6.29985 55.2593C2.20905 71.8139 10.0225 81.763 21.1631 81.763C32.3037 81.763 39.6536 73.397 44.2898 60.3772C50.3306 43.263 56.4668 25.4119 62.2212 8.39331H51.2578Z" fill="#E30613"/>
<path d="M269.393 55.4367C266.325 60.0905 261.962 64.4578 259.725 64.4578C255.075 64.4578 255.171 59.3399 261.021 42.9764H268.916L271.52 35.634H263.721C265.207 31.8263 266.884 27.5409 268.834 22.7096H259.166L254.339 35.634H250.248L247.739 42.9764H251.735C251.298 44.2729 250.876 45.5558 250.48 46.825C248.094 49.1997 244.903 49.9367 241.698 49.1178V48.3672C241.698 41.4888 237.43 34.6923 229.249 34.6923C218.231 34.6923 210.186 44.3685 208.563 55.6278C204.472 61.8374 199.686 65.2766 195.159 65.7543C200.545 62.124 204.731 52.557 204.731 46.129C204.731 38.8821 201.39 34.7878 196.372 34.7878C191.354 34.7878 186.527 38.5136 183.554 43.5223L186.718 35.6203H177.241C175.7 40.0967 174.159 44.5868 172.632 49.1042C166.373 61.1005 160.891 65.4677 152.26 65.4677C149.014 65.4677 147.896 63.8846 147.337 61.3734C156.719 60.4454 165.459 52.9119 165.459 43.7953C165.459 38.5819 161.832 34.6786 156.269 34.6786C151.619 34.6786 146.696 38.0223 143.451 42.6762C146.696 34.0235 150.978 22.6824 154.319 14.0434H144.187C140.096 25.9851 136.006 37.8995 131.956 49.7866C125.847 61.2642 120.42 65.4541 111.938 65.4541C107.288 65.4541 104.602 62.4789 104.602 57.2655C104.602 50.3871 108.965 42.9491 113.247 42.9491C116.315 42.9491 117.052 47.1389 115.197 52.5298H124.947C127.92 43.8771 124.292 34.6786 114.543 34.6786C104.793 34.6786 96.2021 44.1364 94.934 55.423C91.3614 60.923 87.7478 64.4305 85.1979 64.4305C81.6661 64.4305 84.0797 57.9206 92.2613 35.6067H82.7843L81.4889 39.5099C80.098 36.9987 76.4708 34.6786 72.7618 34.6786C62.2621 34.6786 53.6305 47.4119 53.6305 59.8722C53.6305 68.0608 57.7213 73.3561 64.1302 73.3561C69.3392 73.3561 72.68 70.3809 74.7254 67.1327C75.2845 70.299 77.7935 73.3561 82.2525 73.3561C87.1069 73.3561 91.9204 69.3846 95.8476 64.4851C98.043 70.2171 103.416 73.3561 109.934 73.3561C116.793 73.3561 121.783 71.459 125.67 68.4838C125.233 69.794 124.783 71.1178 124.333 72.428L133.715 72.3325C137.71 58.7531 144.487 42.8536 152.764 42.8536C154.714 42.8536 155.928 44.2456 155.928 45.9243C155.928 50.4826 149.233 57.0881 140.874 57.5521C138.46 66.5732 142.728 73.3561 150.255 73.3561C157.182 73.3561 162.2 71.4317 166.087 68.402C162.923 77.6687 159.76 86.9491 156.569 96.1476H166.605C169.673 86.0074 172.359 76.9863 174.787 70.1079C178.223 72.5235 182.873 73.4516 187.604 73.4516C195.268 73.4516 202.659 72.428 209.217 65.2357C210.949 70.1352 215.149 73.3561 221.054 73.3561C230.803 73.3561 237.867 65.8226 240.567 56.7059C243.198 57.1154 245.803 56.7605 248.135 55.9417C246.076 66.2047 247.494 73.3424 256.821 73.3424C264.443 73.3424 271.78 65.7134 274.752 60.6092L269.461 55.3958L269.393 55.4367ZM67.7029 64.4578C64.7302 64.4578 63.4348 61.9466 63.4348 58.9714C63.4348 51.8064 67.5256 43.1675 73.6482 43.1675C75.9663 43.1675 78.0117 44.464 79.2253 46.2382C75.5027 58.5074 71.7937 64.4578 67.7029 64.4578ZM182.9 65.768C180.295 65.768 178.073 64.8399 176.764 63.4479C182.245 48.4764 187.632 42.799 191.354 42.8945C193.672 42.8945 194.791 44.8461 194.791 47.9168C194.791 55.1637 189.036 65.768 182.9 65.768ZM222.294 64.8263C219.594 64.8263 217.835 62.6836 217.835 58.5074C217.835 51.7245 222.663 42.8809 227.681 42.8809C230.558 42.8809 232.044 45.4876 232.044 49.1042C232.044 56.1737 227.122 64.8126 222.294 64.8126V64.8263Z" fill="#E30613"/>
<path d="M308.706 37.2035C308.229 37.2035 307.847 36.835 307.847 36.3846C307.847 32.2221 307.138 26.572 303.756 23.3375C300.374 20.0893 294.47 19.4206 290.12 19.4206C289.643 19.4206 289.275 19.0658 289.261 18.6154C289.261 18.1514 289.643 17.7829 290.12 17.7829C294.47 17.7829 300.361 17.1005 303.756 13.866C307.138 10.6315 307.847 4.98139 307.86 0.818859C307.86 0.354839 308.256 0 308.72 0C309.183 0 309.579 0.368486 309.579 0.818859V0.846154C309.579 5.00869 310.301 10.6315 313.669 13.8524C317.065 17.0868 322.956 17.7692 327.305 17.7692C327.783 17.7692 328.164 18.1377 328.164 18.5881C328.164 19.0521 327.783 19.4069 327.305 19.4069C322.956 19.4069 316.069 21.031 312.688 24.2655C309.306 27.5 309.579 32.2084 309.579 36.371C309.579 36.8213 309.197 37.1898 308.72 37.1898L308.706 37.2035Z" fill="#FFE5B6"/>
<path d="M335.323 60.2817C334.914 60.2817 334.587 59.9678 334.587 59.572C334.587 55.9827 333.973 51.0968 331.055 48.3127C328.124 45.5149 323.037 44.9281 319.274 44.9281C318.865 44.9281 318.537 44.6278 318.537 44.232C318.537 43.8363 318.865 43.5224 319.274 43.5224C323.024 43.5224 328.124 42.9355 331.042 40.1377C333.96 37.34 334.573 32.4678 334.587 28.8784C334.587 28.4827 334.928 28.1688 335.323 28.1688C335.719 28.1688 336.06 28.4827 336.06 28.8784V28.9057C336.06 32.4951 336.687 37.3536 339.591 40.1377C342.523 42.9355 347.609 43.5224 351.359 43.5224C351.768 43.5224 352.096 43.8363 352.096 44.232C352.096 44.6278 351.768 44.9417 351.359 44.9417C347.596 44.9417 341.664 46.3338 338.746 49.1315C335.828 51.9293 336.06 55.9963 336.06 59.5856C336.06 59.9814 335.732 60.2953 335.323 60.2953V60.2817Z" fill="#FFE5B6" fill-opacity="0.5"/>
<path d="M348.169 31.567C347.855 31.567 347.609 31.3214 347.609 31.0211C347.609 28.2779 347.146 24.5385 344.91 22.4094C342.673 20.2668 338.773 19.8164 335.91 19.8164C335.596 19.8164 335.351 19.5844 335.351 19.2841C335.351 18.9839 335.61 18.7382 335.91 18.7382C338.787 18.7382 342.673 18.2879 344.91 16.1452C347.146 14.0025 347.609 10.2767 347.609 7.53352C347.609 7.23327 347.869 6.98761 348.169 6.98761C348.469 6.98761 348.728 7.23327 348.728 7.53352V7.56081C348.728 10.304 349.205 14.0298 351.428 16.1588C353.664 18.3015 357.564 18.7519 360.427 18.7519C360.741 18.7519 360.986 18.9975 360.986 19.2978C360.986 19.598 360.727 19.8437 360.427 19.8437C357.55 19.8437 353.009 20.9082 350.773 23.0509C348.537 25.1936 348.714 28.2916 348.714 31.0484C348.714 31.3487 348.455 31.5943 348.155 31.5943L348.169 31.567Z" fill="#FFE5B6" fill-opacity="0.25"/>
<path d="M308.706 73.4653C308.351 73.4653 308.051 73.1787 308.051 72.8375C308.051 69.6576 307.506 65.3586 304.929 62.8747C302.338 60.4045 297.838 59.8859 294.524 59.8859C294.17 59.8859 293.87 59.6129 293.87 59.2717C293.87 58.9169 294.17 58.6439 294.524 58.6439C297.838 58.6439 302.338 58.1253 304.929 55.6551C307.506 53.1849 308.051 48.8722 308.051 45.706C308.051 45.3511 308.351 45.0782 308.706 45.0782C309.06 45.0782 309.36 45.3648 309.36 45.706V45.7333C309.36 48.8995 309.919 53.1985 312.483 55.6688C315.074 58.139 319.574 58.6576 322.887 58.6576C323.242 58.6576 323.542 58.9305 323.542 59.2854C323.542 59.6402 323.242 59.9132 322.887 59.9132C319.56 59.9132 314.324 61.1415 311.733 63.6253C309.156 66.0956 309.36 69.6849 309.36 72.8648C309.36 73.206 309.06 73.4926 308.706 73.4926V73.4653Z" fill="#FFE5B6" fill-opacity="0.75"/>
</g>
<defs>
<clipPath id="clip0_2101_22">
<rect width="361" height="110" fill="white"/>
</clipPath>
</defs>
</svg>
